<svg width="110" height="110" viewBox="0 0 110 110" fill="none" xmlns="http://www.w3.org/2000/svg">
<g clip-path="url(#clip0)">
<path fill-rule="evenodd" clip-rule="evenodd" d="M55 0C40.4131 0 26.4236 5.79463 16.1091 16.1091C5.79463 26.4236 0 40.4131 0 55C0 69.5869 5.79463 83.5764 16.1091 93.8909C26.4236 104.205 40.4131 110 55 110C69.5869 110 83.5764 104.205 93.8909 93.8909C104.205 83.5764 110 69.5869 110 55C110 40.4131 104.205 26.4236 93.8909 16.1091C83.5764 5.79463 69.5869 0 55 0ZM55 24.2C71.9843 24.2 85.8 38.016 85.8 55C85.8 71.9844 71.9843 85.8 55 85.8C38.0157 85.8 24.2 71.9844 24.2 55C24.2 38.016 38.0157 24.2 55 24.2ZM55 28.6C40.3936 28.6 28.6 40.3938 28.6 55C28.6 69.6067 40.3936 81.4 55 81.4C69.6064 81.4 81.4 69.6067 81.4 55C81.4 40.3938 69.6064 28.6 55 28.6ZM68.8445 42.4445L71.9641 45.5555L48.4 69.1109L38.0445 58.7555L41.1641 55.6445L48.4 62.8805L68.8445 42.4445Z" fill="#43D787"/>
</g>
<defs>
<clipPath id="clip0">
<rect width="110" height="110" fill="white"/>
</clipPath>
</defs>
</svg>
