<svg width="168" height="168" viewBox="0 0 168 168" fill="none" xmlns="http://www.w3.org/2000/svg">
<path d="M84 133.965C111.614 133.965 134 111.594 134 83.9982C134 56.4022 111.614 34.0312 84 34.0312C56.3858 34.0312 34 56.4022 34 83.9982C34 111.594 56.3858 133.965 84 133.965Z" fill="#30C43C"/>
<path d="M84 168C130.392 168 168 130.392 168 84C168 37.6081 130.392 0 84 0C37.6081 0 0 37.6081 0 84C0 130.392 37.6081 168 84 168Z" fill="#30C43C" fill-opacity="0.1"/>
<path d="M111.331 63.6484H56.6664C56.1116 63.6469 55.5788 63.8655 55.185 64.2565C54.7913 64.6474 54.5688 65.1786 54.5664 65.7334V103.266C54.5688 103.821 54.7913 104.352 55.185 104.743C55.5788 105.134 56.1116 105.353 56.6664 105.351H111.331C111.886 105.353 112.419 105.134 112.813 104.743C113.207 104.352 113.429 103.821 113.431 103.266V65.7334C113.429 65.1786 113.207 64.6474 112.813 64.2565C112.419 63.8655 111.886 63.6469 111.331 63.6484ZM107.883 67.8184L84.0004 86.0394L60.1164 67.8184H107.883ZM109.229 101.181H58.7664V72.0534L82.7154 90.3234C83.0836 90.6033 83.5334 90.7549 83.9959 90.7549C84.4584 90.7549 84.9082 90.6033 85.2764 90.3234L109.225 72.0534L109.229 101.181Z" fill="white"/>
<path d="M46.2217 77.9082H62.5257" stroke="white" stroke-width="4" stroke-linecap="round"/>
<path d="M46.2217 93.9082H62.5257" stroke="white" stroke-width="4" stroke-linecap="round"/>
<path d="M40.874 85.9082H62.526" stroke="white" stroke-width="4" stroke-linecap="round"/>
</svg>
