<svg width="24" height="24" viewBox="0 0 24 24" fill="none" xmlns="http://www.w3.org/2000/svg">
<path d="M21 12C21 7.03125 16.9688 3 12 3C7.03125 3 3 7.03125 3 12C3 16.9688 7.03125 21 12 21C16.9688 21 21 16.9688 21 12Z" stroke="#E71D32" stroke-width="1.5" stroke-miterlimit="10"/>
<path d="M11.731 7.7837L12.0001 13.5001L12.2686 7.7837C12.2703 7.74716 12.2645 7.71066 12.2516 7.67644C12.2386 7.64222 12.2189 7.61099 12.1935 7.58467C12.1681 7.55834 12.1376 7.53748 12.1038 7.52334C12.0701 7.5092 12.0338 7.5021 11.9972 7.50245V7.50245C11.9611 7.50279 11.9254 7.51041 11.8923 7.52486C11.8591 7.53931 11.8292 7.56028 11.8044 7.58653C11.7795 7.61278 11.7602 7.64377 11.7476 7.67765C11.735 7.71152 11.7294 7.74759 11.731 7.7837V7.7837Z" stroke="#E71D32" stroke-width="1.5" stroke-linecap="round" stroke-linejoin="round"/>
<path d="M12 17.2222C11.8192 17.2222 11.6425 17.1686 11.4922 17.0681C11.3419 16.9677 11.2247 16.8249 11.1555 16.6579C11.0863 16.4909 11.0682 16.3071 11.1035 16.1298C11.1388 15.9525 11.2258 15.7896 11.3537 15.6618C11.4815 15.5339 11.6444 15.4469 11.8217 15.4116C11.999 15.3763 12.1828 15.3944 12.3498 15.4636C12.5168 15.5328 12.6596 15.65 12.76 15.8003C12.8605 15.9506 12.9141 16.1273 12.9141 16.3081C12.9141 16.5505 12.8178 16.783 12.6463 16.9544C12.4749 17.1259 12.2424 17.2222 12 17.2222Z" fill="#E71D32" stroke="#E71D32" stroke-width="0.046875"/>
</svg>
